<?xml version="1.0" encoding="iso-8859-1"?>
<!-- Generator: Adobe Illustrator 19.0.0, SVG Export Plug-In . SVG Version: 6.00 Build 0)  -->
<svg version="1.1" id="Capa_1" xmlns="http://www.w3.org/2000/svg" xmlns:xlink="http://www.w3.org/1999/xlink" x="0px" y="0px"
	 viewBox="0 0 512.001 512.001" style="enable-background:new 0 0 512.001 512.001;" xml:space="preserve">
<path style="fill:#BA406F;" d="M238.298,485.704H0l12.432-195.851c1.661-26.166,24.472-47.575,50.691-47.575h112.052
	c26.219,0,49.03,21.409,50.691,47.575L238.298,485.704z"/>
<path style="fill:#EB4F96;" d="M119.149,485.704H0l12.432-195.851c1.661-26.166,24.472-47.575,50.691-47.575h56.026V485.704z"/>
<path style="fill:#BA406F;" d="M182.21,128.727v92.241H56.088v-92.241c0-34.828,28.233-63.061,63.061-63.061
	S182.21,93.899,182.21,128.727z"/>
<path style="fill:#EB4F96;" d="M119.149,220.968H56.088v-92.241c0-34.828,28.233-63.061,63.061-63.061V220.968z"/>
<path style="fill:#6FD9D9;" d="M499.131,485.704H291.737l-12.805-257.908c-1.44-29.006,21.689-53.312,50.731-53.312h131.543
	c29.041,0,52.171,24.306,50.731,53.312L499.131,485.704z"/>
<path style="fill:#AFF9FA;" d="M395.434,485.704H291.737l-12.805-257.908c-1.44-29.006,21.689-53.312,50.731-53.312h65.772v311.22
	H395.434z"/>
<circle style="fill:#6FD9D9;" cx="395.43" cy="97.131" r="70.835"/>
<path style="fill:#AFF9FA;" d="M395.434,167.969c-39.121,0-70.835-31.714-70.835-70.835s31.714-70.835,70.835-70.835V167.969z"/>
<path style="fill:#F576A2;" d="M329.663,485.704H182.337V366.91c0-28.657,23.231-51.889,51.889-51.889h43.548
	c28.657,0,51.889,23.231,51.889,51.889L329.663,485.704L329.663,485.704z"/>
<path style="fill:#FFA1DC;" d="M256,485.704h-73.663V365.061c0-27.636,22.403-50.04,50.04-50.04H256V485.704z"/>
<circle style="fill:#F576A2;" cx="256" cy="260.941" r="51.01"/>
<path style="fill:#FFA1DC;" d="M256,311.949c-28.172,0-51.009-22.838-51.009-51.009s22.838-51.009,51.009-51.009V311.949z"/>
<g>
</g>
<g>
</g>
<g>
</g>
<g>
</g>
<g>
</g>
<g>
</g>
<g>
</g>
<g>
</g>
<g>
</g>
<g>
</g>
<g>
</g>
<g>
</g>
<g>
</g>
<g>
</g>
<g>
</g>
</svg>
